<svg width="854" height="236" viewBox="0 0 854 236" fill="none" xmlns="http://www.w3.org/2000/svg">
<path d="M289.252 121.074C289.252 141.877 272.402 158.755 251.599 158.755C230.796 158.755 213.945 141.877 213.945 121.074C213.945 100.271 230.824 83.4204 251.599 83.4204C272.374 83.4204 289.252 100.299 289.252 121.074Z" fill="#EE2750"/>
<path d="M290.515 153.376C281.238 164.491 267.214 171.681 251.599 171.681C235.983 171.681 226.816 165.973 200.388 146.652C168.909 123.626 139.407 100.299 117.835 92.1476C90.5283 81.7737 54 83.4478 54 83.4478V115.969C54 119.757 57.0738 122.858 60.8336 122.858C60.8336 122.858 105.156 120.909 146.899 138.528C172.34 149.259 197.039 164.6 211.146 171.434C229.506 180.326 249.925 185.046 264.854 179.859C278.741 174.974 285.904 161.856 290.542 153.403" fill="#EE2750"/>
<path d="M290.515 54H54V63.825H290.515V54Z" fill="#EE2750"/>
<path d="M355.365 116.436H399.523C399.523 104.525 399.441 96.4014 399.002 83.3379H409.128C408.689 98.4048 408.689 107.05 408.689 122.419C408.689 136.635 408.689 144.868 409.128 158.892H399.002C399.523 145.307 399.523 137.184 399.523 123.791H355.365C355.365 137.184 355.365 145.307 355.804 158.892H345.787C346.199 144.868 346.199 136.635 346.199 122.419C346.199 107.022 346.199 98.3773 345.787 83.3379H355.804C355.475 96.4014 355.365 104.525 355.365 116.436Z" fill="#4F0A4A"/>
<path d="M452.353 153.128C457.842 153.128 464.099 150.713 467.64 147.64L470.768 153.76C465.609 157.849 458.94 160.072 450.295 160.072C435.118 160.072 423.125 150.082 423.125 132.051C423.125 115.941 433.142 105.924 448.127 105.924C461.273 105.924 470.658 114.048 470.658 129.334C470.658 130.706 470.658 132.188 470.549 133.67H431.88C432.73 147.146 440.827 153.183 452.353 153.183M431.742 127.825H462.041C461.163 116.545 456.415 112.127 447.166 112.127C438.439 112.127 432.538 118.137 431.742 127.825Z" fill="#4F0A4A"/>
<path d="M528.813 158.947H520.634L519.564 150.384C515.337 157.026 508.449 160.072 500.71 160.072C489.732 160.072 479.715 150.714 479.715 134.027C479.715 117.341 492.614 105.897 508.998 105.897C514.075 105.897 517.725 106.638 521.512 107.791L529.279 105.348C528.511 115.777 528.401 121.074 528.401 131.914C528.401 142.755 528.401 147.503 528.84 158.919M504.36 153.129C510.068 153.129 515.118 150.494 519.454 143.962C519.674 140.696 519.783 135.317 519.783 131.091C519.783 124.861 519.674 116.985 519.454 114.35C516.216 112.868 512.977 112.127 508.229 112.127C497.773 112.127 488.744 119.921 488.744 132.573C488.744 146.515 495.523 153.129 504.36 153.129Z" fill="#4F0A4A"/>
<path d="M588.916 83.3653C588.477 99.3928 588.477 103.811 588.477 120.031C588.477 135.208 588.477 143.962 588.916 158.947H580.71L579.613 150.384C575.441 157.026 568.525 160.072 560.759 160.072C549.781 160.072 539.764 150.714 539.764 134.027C539.764 117.341 552.69 105.897 569.074 105.897C573.575 105.897 577.17 106.528 579.832 107.269C579.832 97.6912 579.723 94.7273 579.393 83.3379H588.889L588.916 83.3653ZM564.409 153.129C570.144 153.129 575.194 150.494 579.53 143.962C579.75 140.696 579.86 135.317 579.86 131.091C579.86 124.861 579.75 118.027 579.64 114.35C576.429 112.868 573.081 112.127 568.333 112.127C557.877 112.127 548.848 119.921 548.848 132.573C548.848 146.515 555.626 153.129 564.436 153.129" fill="#4F0A4A"/>
<path d="M606.041 83.3652H649.019V90.8575C642.46 90.638 627.804 90.638 615.839 90.638C615.619 99.5025 615.619 109.081 615.619 118.466C626.624 118.466 640.511 118.357 647.921 118.055V125.849C640.813 125.437 626.487 125.437 615.619 125.437C615.619 138.611 615.619 145.362 616.058 158.947H606.014C606.453 144.923 606.453 136.689 606.453 122.473C606.453 107.077 606.453 98.4321 606.014 83.3927" fill="#4F0A4A"/>
<path d="M663.372 94.8373C659.283 94.8373 657.143 92.2026 657.143 89.1563C657.143 86.3021 659.283 83.8047 663.372 83.8047C667.462 83.8047 669.52 86.3021 669.52 89.1563C669.52 92.2301 667.462 94.8373 663.372 94.8373ZM668.038 158.947H658.542C658.981 149.012 658.981 143.029 658.981 133.012C658.981 122.254 658.981 117.945 658.542 107.187H668.038C667.599 117.726 667.599 122.254 667.599 133.012C667.599 143.029 667.599 149.012 668.038 158.947Z" fill="#4F0A4A"/>
<path d="M707.53 105.897C710 105.897 711.729 106.336 713.238 106.858L710.548 115.612C708.929 115.173 707.42 114.981 705.691 114.981C701.08 114.981 696.634 117.204 692.655 123.434C692.353 127.002 692.216 132.298 692.216 139.544C692.216 145.142 692.353 152.278 692.655 158.947H683.187C683.626 149.149 683.626 143.029 683.626 133.012C683.626 122.254 683.626 117.314 683.187 107.187H691.173L692.353 117.012C696.223 109.849 702.562 105.924 707.53 105.924" fill="#4F0A4A"/>
<path d="M751.222 114.871C747.462 113.279 743.043 112.566 738.515 112.566C729.348 112.566 725.891 115.173 725.891 118.988C725.891 122.062 727.619 124.477 733.767 126.782L740.875 129.554C751.661 133.67 754.899 138.171 754.899 145.252C754.899 153.897 746.721 160.099 734.947 160.099C726 160.099 720.511 158.535 715.791 156.01L718.261 149.67C723.119 152.113 728.8 153.815 734.755 153.815C742.714 153.815 746.282 150.411 746.282 146.322C746.282 142.425 744.443 140.01 736.374 136.827L729.239 133.972C721.39 130.816 717.3 126.37 717.3 119.839C717.3 111.962 724.628 105.924 738.323 105.924C744.361 105.924 748.559 106.665 753.39 108.339L751.249 114.899L751.222 114.871Z" fill="#4F0A4A"/>
<path d="M779.27 113.17C779.27 125.108 778.638 136.772 779.489 145.746C779.928 150.576 783.908 153.129 787.695 153.129C791.674 153.129 794.583 152.498 797.273 150.823L799.853 156.312C795.983 158.947 791.235 160.072 785.637 160.072C777.019 160.072 770.46 154.309 770.46 142.892C770.46 134.988 771.009 121.815 771.009 113.17H761.65V107.16H771.228C771.228 102.22 771.228 98.6245 771.009 93.9864L780.395 91.5713C779.626 97.2522 779.407 102.522 779.407 107.16H797.081V113.17H779.297H779.27Z" fill="#4F0A4A"/>
</svg>
